<svg width="108" height="108" viewBox="0 0 108 108" fill="none" xmlns="http://www.w3.org/2000/svg">
<path d="M79.9632 60.4991L79.0898 60.7176L79.7369 61.3435L98.9943 79.9715L73.2394 72.6214L72.3746 72.3746L72.6214 73.2394L79.9715 98.9943L61.3435 79.7369L60.7176 79.0898L60.4991 79.9632L54 105.94L47.5009 79.9632L47.2824 79.0898L46.6565 79.7369L28.0285 98.9943L35.3786 73.2394L35.6254 72.3746L34.7606 72.6214L9.00565 79.9715L28.2631 61.3435L28.9102 60.7176L28.0368 60.4991L2.06009 54L28.0368 47.5009L28.9102 47.2824L28.2631 46.6565L9.00566 28.0285L34.7606 35.3786L35.6254 35.6254L35.3786 34.7606L28.0285 9.00566L46.6565 28.2631L47.2824 28.9102L47.5009 28.0368L54 2.06009L60.4991 28.0368L60.7176 28.9102L61.3435 28.2631L79.9715 9.00566L72.6214 34.7606L72.3746 35.6254L73.2394 35.3786L98.9943 28.0285L79.7369 46.6565L79.0898 47.2824L79.9632 47.5009L105.94 54L79.9632 60.4991Z" fill="#BED7E1" stroke="black"/>
</svg>
