<svg width="112" height="116" viewBox="0 0 112 116" fill="none" xmlns="http://www.w3.org/2000/svg">
<path d="M107.886 81.1359C84.0033 74.2009 70.5116 73.6156 60.18 79.1114C54.7222 82.0146 50.1919 86.5911 45.4904 92.7123C41.992 97.2671 38.3774 102.707 34.2081 108.982C33.3427 110.284 32.4534 111.623 31.5363 112.997C34.2313 103.891 36.5008 96.1611 37.8242 89.34C39.2985 81.741 39.6096 75.2203 38.009 69.1233C34.9884 57.6166 25.2071 47.7953 4.19992 35.0388C27.8839 42.7138 41.1439 43.5665 51.385 38.0078C56.8003 35.0684 61.3228 30.3617 66.0838 24.048C69.3742 19.6845 72.8001 14.5228 76.7213 8.61465C77.9756 6.72482 79.2806 4.75862 80.648 2.71774C80.1228 4.71848 79.6089 6.65156 79.1118 8.52152C77.1804 15.7871 75.5023 22.0997 74.3933 27.7252C72.8643 35.4805 72.4004 42.001 73.8598 48.0045C76.6249 59.3785 86.2434 68.7059 107.886 81.1359Z" fill="#EBFF82" stroke="black"/>
</svg>
