<svg width="120" height="120" viewBox="0 0 120 120" fill="none" xmlns="http://www.w3.org/2000/svg">
<path d="M88.8615 67.2751L87.9881 67.4936L88.6352 68.1195L110.192 88.9715L81.3619 80.7439L80.497 80.497L80.7439 81.3619L88.9715 110.192L68.1195 88.6352L67.4936 87.9881L67.2751 88.8615L60 117.94L52.7249 88.8615L52.5064 87.9881L51.8805 88.6352L31.0285 110.192L39.2561 81.3619L39.503 80.497L38.6381 80.7439L9.80821 88.9715L31.3648 68.1195L32.0119 67.4936L31.1385 67.2751L2.06009 60L31.1385 52.7249L32.0119 52.5064L31.3648 51.8805L9.80822 31.0285L38.6381 39.2561L39.503 39.503L39.2561 38.6381L31.0285 9.80822L51.8805 31.3648L52.5064 32.0119L52.7249 31.1385L60 2.06009L67.2751 31.1385L67.4936 32.0119L68.1195 31.3648L88.9715 9.80822L80.7439 38.6381L80.497 39.503L81.3619 39.2561L110.192 31.0285L88.6352 51.8805L87.9881 52.5064L88.8615 52.7249L117.94 60L88.8615 67.2751Z" fill="#BED7E1" stroke="black"/>
</svg>
