<svg width="112" height="112" viewBox="0 0 112 112" fill="none" xmlns="http://www.w3.org/2000/svg">
<path d="M82.9293 62.7578L82.0559 62.9763L82.703 63.6022L102.727 82.9715L75.9469 75.3289L75.0821 75.0821L75.3289 75.9469L82.9715 102.727L63.6022 82.703L62.9763 82.0559L62.7578 82.9293L56 109.94L49.2422 82.9293L49.0237 82.0559L48.3978 82.703L29.0285 102.727L36.6711 75.9469L36.9179 75.0821L36.0531 75.3289L9.27317 82.9715L29.297 63.6022L29.9441 62.9763L29.0707 62.7578L2.06009 56L29.0707 49.2422L29.9441 49.0237L29.297 48.3978L9.27318 29.0285L36.0531 36.6711L36.9179 36.9179L36.6711 36.0531L29.0285 9.27318L48.3978 29.297L49.0237 29.9441L49.2422 29.0707L56 2.06009L62.7578 29.0707L62.9763 29.9441L63.6022 29.297L82.9715 9.27318L75.3289 36.0531L75.0821 36.9179L75.9469 36.6711L102.727 29.0285L82.703 48.3978L82.0559 49.0237L82.9293 49.2422L109.94 56L82.9293 62.7578Z" fill="#FFE664" stroke="black"/>
</svg>
