<svg width="1920" height="200" viewBox="0 0 1920 200" fill="none" xmlns="http://www.w3.org/2000/svg">
<path d="M187.523 99.6936C147.312 104.932 127.137 112.673 115.669 127.309C109.729 134.889 106.157 144.279 103.313 156.02C101.196 164.758 99.4748 174.835 97.4873 186.471C96.9757 189.466 96.4464 192.565 95.8882 195.771C95.8604 195.557 95.8325 195.343 95.8048 195.13C93.8133 179.839 92.1337 166.943 89.6341 156.054C86.9242 144.25 83.2405 134.755 77.1118 127.083C65.3018 112.298 44.5328 104.427 4.73227 99.5141C45.1928 95.5152 65.2111 88.3245 76.5092 73.6528C82.3643 66.0494 85.8432 56.4795 88.6512 44.4227C90.5921 36.0889 92.2197 26.5302 94.0844 15.579C94.7677 11.5657 95.4829 7.36545 96.257 2.96991C96.8762 6.76652 97.4559 10.4179 98.0135 13.9293C99.8607 25.5624 101.464 35.6596 103.446 44.4148C106.178 56.4833 109.644 66.0736 115.512 73.7003C126.847 88.4345 147.019 95.6797 187.523 99.6936Z" fill="#FF87B4" stroke="black"/>
<path d="M379.615 99.6936C339.404 104.932 319.229 112.673 307.76 127.309C301.821 134.889 298.249 144.279 295.405 156.02C293.288 164.758 291.567 174.835 289.579 186.471C289.068 189.466 288.538 192.565 287.98 195.771C287.952 195.556 287.924 195.343 287.897 195.13C285.905 179.839 284.226 166.943 281.726 156.054C279.016 144.25 275.332 134.755 269.204 127.083C257.394 112.298 236.625 104.427 196.824 99.5141C237.285 95.5152 257.303 88.3245 268.601 73.6528C274.456 66.0494 277.935 56.4795 280.743 44.4227C282.684 36.0889 284.311 26.5302 286.176 15.579C286.86 11.5657 287.575 7.36545 288.349 2.96991C288.968 6.7665 289.548 10.4178 290.105 13.9292C291.952 25.5624 293.556 35.6596 295.538 44.4148C298.27 56.4833 301.736 66.0736 307.603 73.7003C318.939 88.4345 339.111 95.6797 379.615 99.6936Z" fill="#FF87B4" stroke="black"/>
<path d="M571.706 99.6936C531.496 104.932 511.321 112.673 499.852 127.309C493.913 134.889 490.341 144.279 487.496 156.02C485.38 164.758 483.658 174.835 481.671 186.471C481.159 189.466 480.63 192.565 480.072 195.771C480.044 195.557 480.016 195.343 479.988 195.13C477.997 179.839 476.317 166.943 473.818 156.054C471.108 144.25 467.424 134.755 461.295 127.083C449.485 112.298 428.716 104.427 388.916 99.5141C429.376 95.5152 449.395 88.3245 460.693 73.6528C466.548 66.0494 470.027 56.4795 472.835 44.4227C474.776 36.0889 476.403 26.5302 478.268 15.579C478.951 11.5657 479.666 7.36545 480.441 2.96991C481.06 6.76652 481.64 10.4179 482.197 13.9293C484.044 25.5624 485.648 35.6596 487.63 44.4148C490.362 56.4833 493.828 66.0736 499.695 73.7003C511.031 88.4345 531.202 95.6797 571.706 99.6936Z" fill="#FF87B4" stroke="black"/>
<path d="M763.798 99.6936C723.588 104.932 703.413 112.673 691.944 127.309C686.005 134.889 682.433 144.279 679.588 156.02C677.471 164.758 675.75 174.835 673.763 186.471C673.251 189.466 672.722 192.565 672.164 195.771C672.136 195.557 672.108 195.343 672.08 195.13C670.089 179.839 668.409 166.943 665.91 156.054C663.2 144.25 659.516 134.755 653.387 127.083C641.577 112.298 620.808 104.427 581.008 99.5141C621.468 95.5152 641.486 88.3245 652.785 73.6528C658.64 66.0494 662.119 56.4795 664.927 44.4227C666.867 36.0889 668.495 26.5302 670.36 15.579C671.043 11.5657 671.758 7.36545 672.532 2.96991C673.152 6.76652 673.731 10.4179 674.289 13.9293C676.136 25.5624 677.739 35.6596 679.721 44.4148C682.454 56.4833 685.919 66.0736 691.787 73.7003C703.123 88.4345 723.294 95.6797 763.798 99.6936Z" fill="#FF87B4" stroke="black"/>
<path d="M955.89 99.6936C915.679 104.932 895.504 112.673 884.036 127.309C878.096 134.889 874.524 144.279 871.68 156.02C869.563 164.758 867.842 174.835 865.855 186.471C865.343 189.466 864.814 192.565 864.255 195.771C864.228 195.557 864.2 195.343 864.172 195.13C862.18 179.839 860.501 166.943 858.001 156.054C855.291 144.25 851.608 134.755 845.479 127.083C833.669 112.298 812.9 104.427 773.099 99.5141C813.56 95.5152 833.578 88.3245 844.876 73.6528C850.732 66.0494 854.21 56.4795 857.018 44.4227C858.959 36.0889 860.587 26.5302 862.452 15.579C863.135 11.5657 863.85 7.36545 864.624 2.96991C865.243 6.76652 865.823 10.4179 866.381 13.9293C868.228 25.5624 869.831 35.6596 871.813 44.4148C874.546 56.4833 878.011 66.0736 883.879 73.7003C895.215 88.4345 915.386 95.6797 955.89 99.6936Z" fill="#FF87B4" stroke="black"/>
<path d="M1147.98 99.6936C1107.77 104.932 1087.6 112.673 1076.13 127.309C1070.19 134.889 1066.62 144.279 1063.77 156.02C1061.66 164.758 1059.93 174.835 1057.95 186.471C1057.43 189.466 1056.91 192.565 1056.35 195.771C1056.32 195.557 1056.29 195.343 1056.26 195.13C1054.27 179.839 1052.59 166.943 1050.09 156.054C1047.38 144.25 1043.7 134.755 1037.57 127.083C1025.76 112.298 1004.99 104.427 965.191 99.5141C1005.65 95.5152 1025.67 88.3245 1036.97 73.6528C1042.82 66.0494 1046.3 56.4795 1049.11 44.4227C1051.05 36.0889 1052.68 26.5302 1054.54 15.579C1055.23 11.5657 1055.94 7.36545 1056.72 2.96991C1057.34 6.76652 1057.91 10.4179 1058.47 13.9293C1060.32 25.5624 1061.92 35.6596 1063.91 44.4148C1066.64 56.4833 1070.1 66.0736 1075.97 73.7003C1087.31 88.4345 1107.48 95.6797 1147.98 99.6936Z" fill="#FF87B4" stroke="black"/>
<path d="M1340.07 99.6936C1299.86 104.932 1279.69 112.673 1268.22 127.309C1262.28 134.889 1258.71 144.279 1255.86 156.02C1253.75 164.758 1252.03 174.835 1250.04 186.471C1249.53 189.466 1249 192.565 1248.44 195.771C1248.41 195.557 1248.38 195.343 1248.36 195.13C1246.36 179.839 1244.68 166.943 1242.18 156.054C1239.47 144.25 1235.79 134.755 1229.66 127.083C1217.85 112.298 1197.08 104.427 1157.28 99.5141C1197.74 95.5152 1217.76 88.3245 1229.06 73.6528C1234.92 66.0494 1238.39 56.4795 1241.2 44.4227C1243.14 36.0889 1244.77 26.5302 1246.64 15.579C1247.32 11.5657 1248.03 7.36545 1248.81 2.96991C1249.43 6.76652 1250.01 10.4179 1250.56 13.9293C1252.41 25.5624 1254.01 35.6596 1256 44.4148C1258.73 56.4833 1262.19 66.0736 1268.06 73.7003C1279.4 88.4345 1299.57 95.6797 1340.07 99.6936Z" fill="#FF87B4" stroke="black"/>
<path d="M1532.17 99.6936C1491.95 104.932 1471.78 112.673 1460.31 127.309C1454.37 134.889 1450.8 144.279 1447.96 156.02C1445.84 164.758 1444.12 174.835 1442.13 186.471C1441.62 189.466 1441.09 192.565 1440.53 195.771C1440.5 195.557 1440.48 195.343 1440.45 195.13C1438.46 179.839 1436.78 166.943 1434.28 156.054C1431.57 144.25 1427.88 134.755 1421.75 127.083C1409.94 112.298 1389.18 104.427 1349.37 99.5141C1389.84 95.5152 1409.85 88.3245 1421.15 73.6528C1427.01 66.0494 1430.49 56.4795 1433.29 44.4227C1435.23 36.0889 1436.86 26.5302 1438.73 15.579C1439.41 11.5657 1440.13 7.36545 1440.9 2.96991C1441.52 6.76652 1442.1 10.4179 1442.66 13.9293C1444.5 25.5624 1446.11 35.6596 1448.09 44.4148C1450.82 56.4833 1454.29 66.0736 1460.15 73.7003C1471.49 88.4345 1491.66 95.6797 1532.17 99.6936Z" fill="#FF87B4" stroke="black"/>
<path d="M1724.26 99.6936C1684.05 104.932 1663.87 112.673 1652.4 127.309C1646.46 134.889 1642.89 144.279 1640.05 156.02C1637.93 164.758 1636.21 174.835 1634.22 186.471C1633.71 189.466 1633.18 192.565 1632.62 195.771C1632.59 195.557 1632.57 195.343 1632.54 195.13C1630.55 179.839 1628.87 166.943 1626.37 156.054C1623.66 144.25 1619.97 134.755 1613.85 127.083C1602.04 112.298 1581.27 104.427 1541.47 99.5141C1581.93 95.5152 1601.95 88.3245 1613.24 73.6528C1619.1 66.0494 1622.58 56.4795 1625.39 44.4227C1627.33 36.0889 1628.95 26.5302 1630.82 15.579C1631.5 11.5657 1632.22 7.36545 1632.99 2.96991C1633.61 6.76652 1634.19 10.4179 1634.75 13.9293C1636.6 25.5624 1638.2 35.6596 1640.18 44.4148C1642.91 56.4833 1646.38 66.0736 1652.25 73.7003C1663.58 88.4345 1683.75 95.6797 1724.26 99.6936Z" fill="#FF87B4" stroke="black"/>
<path d="M1916.35 99.6936C1876.14 104.932 1855.96 112.673 1844.49 127.309C1838.56 134.889 1834.98 144.279 1832.14 156.02C1830.02 164.758 1828.3 174.835 1826.31 186.471C1825.8 189.466 1825.27 192.565 1824.71 195.771C1824.69 195.557 1824.66 195.343 1824.63 195.13C1822.64 179.839 1820.96 166.943 1818.46 156.054C1815.75 144.25 1812.07 134.755 1805.94 127.083C1794.13 112.298 1773.36 104.427 1733.56 99.5141C1774.02 95.5152 1794.04 88.3245 1805.34 73.6528C1811.19 66.0494 1814.67 56.4795 1817.48 44.4227C1819.42 36.0889 1821.05 26.5302 1822.91 15.579C1823.59 11.5657 1824.31 7.36545 1825.08 2.96991C1825.7 6.76652 1826.28 10.4179 1826.84 13.9293C1828.69 25.5624 1830.29 35.6596 1832.27 44.4148C1835 56.4833 1838.47 66.0736 1844.34 73.7003C1855.67 88.4345 1875.84 95.6797 1916.35 99.6936Z" fill="#FF87B4" stroke="black"/>
</svg>
