<svg width="160" height="154" viewBox="0 0 160 154" fill="none" xmlns="http://www.w3.org/2000/svg">
<path d="M101.043 149.299C87.5386 118.952 76.6556 104.832 62.3435 99.1628C54.8791 96.2061 46.5293 95.5673 36.4825 96.0609C29.0057 96.4282 20.5523 97.4256 10.7949 98.5768C8.45692 98.8527 6.04404 99.1374 3.55179 99.4243C15.281 94.2484 25.1787 89.8801 33.2825 85.3302C42.0739 80.3941 48.7988 75.2208 53.4923 68.5206C62.47 55.7045 63.9087 37.4569 58.6109 5.05406C71.1941 35.8678 81.6063 49.9885 95.9058 55.5141C103.369 58.3982 111.842 58.92 122.131 58.3233C129.243 57.9109 137.261 56.9607 146.443 55.8725C149.656 55.4918 153.01 55.0942 156.519 54.6968C153.797 56.0027 151.17 57.2507 148.638 58.4534C139.785 62.6594 132.098 66.3113 125.572 69.9494C116.577 74.9644 109.723 79.9864 105.004 86.4679C95.951 98.903 94.8698 116.544 101.043 149.299Z" fill="#FF87B4" stroke="black"/>
</svg>
