<svg width="185" height="191" viewBox="0 0 185 191" fill="none" xmlns="http://www.w3.org/2000/svg">
<path d="M180.957 171.233C137.551 142.946 111.707 133.762 88.6181 138.468C76.7474 140.887 65.6556 146.968 53.3247 155.908C44.1468 162.561 34.2533 170.821 22.8251 180.363C19.6788 182.989 16.4162 185.713 13.0202 188.527C13.3242 188.06 13.627 187.595 13.9284 187.132C24.5377 170.832 33.4807 157.093 39.9948 144.611C47.056 131.08 51.2877 118.983 51.6931 106.646C52.4805 82.689 38.8356 58.0198 4.12113 20.3273C46.7611 50.0496 72.0017 59.6418 94.9566 54.762C106.765 52.2518 117.915 45.9222 130.47 36.6495C139.149 30.2398 148.529 22.4007 159.278 13.4165C163.397 9.97413 167.717 6.36366 172.276 2.60107C169.62 6.98756 167.053 11.1823 164.59 15.2078C156.839 27.8763 150.114 38.8682 144.849 48.8829C137.592 62.6872 133.073 74.6986 132.456 86.7786C131.253 110.284 144.826 133.84 180.957 171.233Z" fill="#FFE664" stroke="black"/>
</svg>
