<svg width="129" height="134" viewBox="0 0 129 134" fill="none" xmlns="http://www.w3.org/2000/svg">
<path d="M124.632 54.3304C99.2356 63.4167 87.0466 71.4488 81.495 82.8094C78.5739 88.787 77.5135 95.6402 77.2781 103.955C77.1029 110.142 77.3848 117.175 77.7099 125.289C77.7806 127.053 77.8534 128.867 77.9239 130.736C74.4917 120.978 71.5724 112.718 68.3977 105.872C64.8898 98.3071 61.0502 92.4225 55.8153 88.1156C45.8944 79.9533 31.1056 77.5731 4.54287 79.7606C30.2419 71.4515 42.399 63.8018 47.8318 52.4431C50.693 46.4611 51.6646 39.4992 51.8305 30.9787C51.9452 25.0898 51.6744 18.4191 51.3644 10.7822C51.2624 8.26939 51.1561 5.65198 51.0579 2.92342C51.892 5.07763 52.6907 7.16085 53.4624 9.17372C56.3627 16.7382 58.882 23.3092 61.4639 28.9211C65.0231 36.6574 68.7294 42.6383 73.7825 46.9526C83.3931 55.1582 97.7214 57.2085 124.632 54.3304Z" fill="#FFE664" stroke="black"/>
</svg>
