<svg width="100" height="115" viewBox="0 0 100 115" fill="none" xmlns="http://www.w3.org/2000/svg">
<path d="M74.0151 63.9339L73.2419 64.1546L73.7819 64.7505L91.6789 84.4993L67.842 76.739L66.9829 76.4593L67.2022 77.3358L73.9947 104.487L56.8481 84.2662L56.1948 83.4958L55.9784 84.4825L50 111.741L44.0216 84.4825L43.8052 83.4958L43.1519 84.2662L26.0053 104.487L32.7978 77.3358L33.0171 76.4593L32.158 76.739L8.32112 84.4993L26.2181 64.7505L26.7581 64.1546L25.9849 63.9339L1.82186 57.0377L25.9849 50.1415L26.7581 49.9208L26.2181 49.3249L8.32112 29.5761L32.158 37.3364L33.0171 37.6161L32.7978 36.7396L26.0053 9.58822L43.1519 29.8092L43.8052 30.5797L44.0216 29.5929L50 2.33397L55.9784 29.5929L56.1948 30.5797L56.8481 29.8092L73.9947 9.58822L67.2022 36.7396L66.9829 37.6161L67.842 37.3364L91.6789 29.5761L73.7819 49.3249L73.2419 49.9208L74.0151 50.1415L98.1781 57.0377L74.0151 63.9339Z" fill="#EBFF82" stroke="black"/>
</svg>
