<svg width="49" height="51" viewBox="0 0 49 51" fill="none" xmlns="http://www.w3.org/2000/svg">
<path d="M44.2476 34.6262C35.302 32.216 29.9301 32.1306 25.7203 34.3743C23.3302 35.6482 21.3603 37.6492 19.3367 40.289C17.8319 42.252 16.276 44.5982 14.4884 47.2938C14.4576 47.3403 14.4267 47.3869 14.3957 47.4336C15.3143 44.2965 16.0817 41.5452 16.561 39.0696C17.1964 35.7885 17.3369 32.9425 16.6361 30.2679C15.4094 25.5858 11.646 21.5795 3.93667 16.6583C12.7744 19.3247 18.0527 19.5076 22.2249 17.2386C24.5978 15.9481 26.5643 13.8898 28.6119 11.1691C30.0265 9.28953 31.5012 7.06319 33.1835 4.52365C33.4202 4.16625 33.6611 3.80264 33.9065 3.43292C33.8333 3.7092 33.7608 3.98243 33.6891 4.25267C32.8608 7.37447 32.1386 10.0968 31.6617 12.5205C31.0039 15.8633 30.7964 18.7093 31.4359 21.3449C32.5642 25.9956 36.2865 29.8262 44.2476 34.6262Z" fill="#BED7E1" stroke="black"/>
</svg>
