<svg width="50" height="50" viewBox="0 0 50 50" fill="none" xmlns="http://www.w3.org/2000/svg">
<path d="M42.1876 5.729H7.81258C7.26005 5.729 6.73014 5.9485 6.33944 6.3392C5.94874 6.7299 5.72925 7.2598 5.72925 7.81234V42.1873C5.72925 42.7399 5.94874 43.2698 6.33944 43.6605C6.73014 44.0512 7.26005 44.2707 7.81258 44.2707H42.1876C42.7401 44.2707 43.27 44.0512 43.6607 43.6605C44.0514 43.2698 44.2709 42.7399 44.2709 42.1873V7.81234C44.2709 7.2598 44.0514 6.7299 43.6607 6.3392C43.27 5.9485 42.7401 5.729 42.1876 5.729Z" stroke="black" stroke-linecap="round" stroke-linejoin="round"/>
<path d="M26.6438 37.6479C26.6022 32.6594 27.7511 28.5375 34.0209 28.7958C42.9647 6.00312 6.49591 6.87187 16.2167 28.6604C19.1647 28.4771 24.0511 30.2323 23.2167 38.1875M44.2709 34.874L5.72925 40.9406M5.72925 11.5L18.5886 13.8854M33.7032 16.1771L44.2709 17.7198" stroke="black" stroke-linecap="round" stroke-linejoin="round"/>
</svg>
