<svg width="224" height="56" viewBox="0 0 224 56" fill="none" xmlns="http://www.w3.org/2000/svg">
<g clip-path="url(#clip0_7_271)">
<path d="M0 0H56V56H0V0Z" fill="#303540"/>
<path d="M22.3001 22.2996C19.2001 25.3996 19.2001 30.4996 22.3001 33.5996C25.4001 36.6996 30.5001 36.6996 33.6001 33.5996C36.7001 30.4996 36.7001 25.3996 33.6001 22.2996C30.5001 19.1996 25.5001 19.1996 22.3001 22.2996Z" fill="#FEFEFE"/>
<path d="M40.9999 15.5997V27.8997C40.9999 35.1997 35.1999 40.9997 27.8999 40.9997H15.5999C22.6999 47.7997 33.7999 47.6997 40.6999 40.6997C47.5999 33.7997 47.6999 22.6997 40.9999 15.5997ZM14.9999 28.0997C14.9999 20.7997 20.7999 14.9997 28.0999 14.9997H40.3999C33.2999 8.19972 22.1999 8.29972 15.2999 15.2997C8.39993 22.2997 8.29993 33.3997 14.9999 40.3997V28.0997Z" fill="white"/>
<path d="M56 0H224V56H56V0Z" fill="#2E6BE5"/>
<path d="M84.3 30.3C80.7 29.3 78 26.4 78 22.2C78 17 82.3 14 86.9 14H108.8V20.3H96V25.2H105.9V31.3H96V40H89.2V20.1H86.8C85.7 20.1 84.4 20.8 84.4 22.2C84.4 23.3 85.1 24 86 24.4L84.3 30.3ZM112 40V14H119V40H112ZM131.1 20.4C136.3 20.4 140 22.9 140 28.1V40H134.1V38C133 40 130.5 40.6 128.1 40.6C123.9 40.6 121.5 37.6 121.5 34.2C121.5 31.3 123.8 27.8 129.5 27.8H133.6V27.5C133.6 25.3 132.8 24.5 131 24.5C129.4 24.5 128.4 25.3 128.3 26.8H122.3C122.6 23.1 125.6 20.4 131.1 20.4ZM133.7 32.7V31.6H130.8C129.1 31.6 127.8 32.5 127.8 33.8C127.8 35.2 128.8 35.9 130.5 35.9C132.5 35.9 133.7 34.5 133.7 32.7ZM160.4 23.8C161.7 21.4 163.6 20.5 166.1 20.5C170.9 20.5 173 23.5 173 28.3V40H166.5V29.6C166.5 27.4 166.1 26.1 164.2 26.1C162.1 26.1 161.5 27.7 161.5 29.8V40H155V29.6C155 27.4 154.5 26.1 152.5 26.1C150.4 26.1 149.7 27.9 149.7 30.1V40.1H143V21H149.3V23.8C150.6 21.1 152.9 20.4 155 20.4C157.5 20.4 159.3 21.4 160.4 23.8ZM182.4 23.6C183.7 21.2 186.1 20.4 188.4 20.4C193.4 20.4 196.4 24.6 196.4 30.5C196.4 36.5 193.3 40.6 188.4 40.6C186.1 40.6 183.8 39.9 182.6 38V47H176V21H182.4V23.6ZM186 35.4C188.8 35.4 189.9 33.1 189.9 30.5C189.9 27.9 188.9 25.7 186 25.7C183.3 25.7 182.1 27.9 182.1 30.5C182.2 33.1 183.3 35.4 186 35.4Z" fill="white"/>
</g>
<defs>
<clipPath id="clip0_7_271">
<rect width="224" height="56" fill="white"/>
</clipPath>
</defs>
</svg>
