<svg width="50" height="50" viewBox="0 0 50 50" fill="none" xmlns="http://www.w3.org/2000/svg">
<path d="M18.6426 34.7898C19.8178 36.2873 20.8874 37.8647 21.8436 39.5107C22.5758 40.9361 23.1631 42.4315 23.5967 43.9742C23.9634 45.0055 24.2947 45.3128 25.0051 45.3128C25.7801 45.3128 26.1311 44.7898 26.403 43.9794C26.8282 42.4693 27.3993 41.004 28.1082 39.6044C29.5017 37.2351 31.0887 34.9851 32.853 32.8773C34.6321 30.7758 36.2056 28.5085 37.552 26.1065C38.6269 23.8679 39.1807 21.4148 39.1717 18.9315C39.1864 16.6268 38.6382 14.3534 37.5749 12.3086" stroke="black" stroke-linecap="round" stroke-linejoin="round"/>
<path d="M12.2239 25.6021C13.7416 29.0698 16.6687 32.1178 18.6489 34.7917L29.1687 22.3313C28.6534 22.9349 28.0142 23.4205 27.2945 23.755C26.5748 24.0895 25.7915 24.2651 24.9978 24.2698C24.2866 24.2731 23.5818 24.1356 22.9239 23.8652C22.2661 23.5948 21.6684 23.1968 21.1651 22.6942C20.6618 22.1916 20.2631 21.5944 19.9917 20.9369C19.7204 20.2795 19.5819 19.5748 19.5843 18.8636C19.6021 17.5954 20.0399 16.369 20.8291 15.3761M29.2853 5.32818C31.0601 5.88607 32.7067 6.79008 34.13 7.98798C35.5534 9.18588 36.7253 10.6539 37.578 12.3073L29.1718 22.3251C29.9565 21.3246 30.3932 20.0953 30.4155 18.824C30.4024 17.3959 29.8283 16.0301 28.817 15.0216C27.8058 14.0131 26.4385 13.4426 25.0103 13.4334C24.217 13.4442 23.4348 13.6221 22.7149 13.9556C21.995 14.2891 21.3535 14.7706 20.8322 15.3688M14.151 9.75526C15.4707 8.16677 17.1247 6.88899 18.9949 6.01302C20.8651 5.13706 22.9056 4.68448 24.9708 4.68756C26.4305 4.68349 27.8825 4.90089 29.277 5.33235L20.8249 15.374" stroke="black" stroke-linecap="round" stroke-linejoin="round"/>
<path d="M12.224 25.6022C11.282 23.4968 10.8059 21.2128 10.8281 18.9064C10.8123 15.558 11.9905 12.3135 14.1511 9.75537L20.8292 15.3752L12.224 25.6022Z" stroke="black" stroke-linecap="round" stroke-linejoin="round"/>
</svg>
