<svg width="50" height="50" viewBox="0 0 50 50" fill="none" xmlns="http://www.w3.org/2000/svg">
<path d="M25 3.125C14.6444 3.125 6.25 11.5194 6.25 21.875C6.25 27.0509 8.34719 31.7375 11.7391 35.1303C15.1319 38.525 23.125 43.4375 23.5938 48.5938C23.664 49.3669 24.2237 50 25 50C25.7763 50 26.336 49.3669 26.4062 48.5938C26.875 43.4375 34.8681 38.525 38.2609 35.1303C41.6528 31.7375 43.75 27.0509 43.75 21.875C43.75 11.5194 35.3556 3.125 25 3.125Z" fill="#FF4433"/>
<path d="M25 28.4375C28.6244 28.4375 31.5624 25.4993 31.5624 21.875C31.5624 18.2506 28.6244 15.3125 25 15.3125C21.3757 15.3125 18.4375 18.2506 18.4375 21.875C18.4375 25.4993 21.3757 28.4375 25 28.4375Z" fill="white"/>
</svg>
