<svg width="269" height="319" viewBox="0 0 269 319" fill="none" xmlns="http://www.w3.org/2000/svg">
<path d="M264.859 197.196C205.239 188.85 173.822 192.927 152.383 211.832C141.431 221.489 133.118 234.987 124.968 252.564C118.901 265.649 112.911 281.027 105.989 298.797C104.009 303.88 101.952 309.159 99.7962 314.636C99.895 313.701 99.9933 312.771 100.091 311.846C102.758 286.619 105.004 265.365 105.391 246.985C105.81 227.067 104.047 210.47 98.2391 195.796C86.8849 167.112 60.1546 145.978 4.72402 121.607C64.3108 132.113 95.3155 128.875 116.53 109.842C127.372 100.114 135.619 86.293 143.832 68.194C149.51 55.6823 155.185 41.0937 161.691 24.3681C164.249 17.791 166.936 10.8834 169.802 3.64169C169.275 10.5232 168.741 17.1107 168.23 23.4245C166.666 42.7415 165.31 59.4958 164.96 74.2652C164.478 94.6206 165.904 111.282 171.364 125.775C182.056 154.155 208.13 174.009 264.859 197.196Z" fill="#FFE664" stroke="black"/>
</svg>
