<svg width="72" height="83" viewBox="0 0 72 83" fill="none" xmlns="http://www.w3.org/2000/svg">
<path d="M53.2525 46.1775L52.4792 46.3982L53.0192 46.9941L65.5515 60.8231L48.8896 55.3987L48.0305 55.119L48.2497 55.9955L52.9947 74.962L41.0374 60.8609L40.3841 60.0904L40.1677 61.0771L36 80.08L31.8323 61.0771L31.6159 60.0904L30.9626 60.8609L19.0053 74.962L23.7503 55.9955L23.9695 55.119L23.1104 55.3987L6.44848 60.8231L18.9808 46.9941L19.5208 46.3982L18.7475 46.1775L1.82186 41.3469L18.7475 36.5162L19.5208 36.2955L18.9808 35.6997L6.44848 21.8706L23.1104 27.295L23.9695 27.5747L23.7503 26.6983L19.0053 7.73171L30.9626 21.8329L31.6159 22.6034L31.8323 21.6166L36 2.6137L40.1677 21.6166L40.3841 22.6034L41.0374 21.8329L52.9947 7.73172L48.2497 26.6983L48.0305 27.5747L48.8896 27.295L65.5515 21.8706L53.0192 35.6997L52.4792 36.2955L53.2525 36.5162L70.1781 41.3469L53.2525 46.1775Z" fill="#BED7E1" stroke="black"/>
</svg>
