<svg width="129" height="154" viewBox="0 0 129 154" fill="none" xmlns="http://www.w3.org/2000/svg">
<path d="M125.109 62.8471C99.3615 73.3013 87.0608 82.4997 81.4846 95.5169C78.5724 102.315 77.5132 110.113 77.278 119.589C77.103 126.642 77.3846 134.658 77.7097 143.913C77.7808 145.935 77.8539 148.017 77.9248 150.16C74.4945 139.035 71.5782 129.624 68.4073 121.823C64.9032 113.203 61.0692 106.5 55.8398 101.592C45.8523 92.2186 30.9243 89.5266 4.04193 92.103C30.1115 82.5448 42.3844 73.7863 47.8419 60.77C50.694 53.9676 51.6648 46.0468 51.8306 36.3347C51.9451 29.6211 51.6746 22.0177 51.3646 13.3083C51.2622 10.431 51.1555 7.43291 51.057 4.30633C51.8893 6.75879 52.6864 9.13024 53.4565 11.4215C56.3562 20.0493 58.8739 27.5403 61.4544 33.9386C65.0105 42.7561 68.7115 49.5685 73.7583 54.4839C83.4299 63.904 97.8879 66.2159 125.109 62.8471Z" fill="#FFE664" stroke="black"/>
</svg>
