<svg width="116" height="45" viewBox="0 0 116 45" fill="none" xmlns="http://www.w3.org/2000/svg">
<g clip-path="url(#clip0_7_216)">
<path d="M18.8375 0H12.7473C6.65684 0 1.41645 4.47873 1.41645 13.1561C1.41645 18.3347 3.96573 22.2535 8.35651 24.2129L0.141581 38.7687C-0.141622 39.1887 0.141581 39.6085 0.566612 39.6085H4.39076C4.67396 39.6085 4.95717 39.4686 5.09877 39.1887L12.6057 24.9128H15.2966V39.1887C15.2966 39.3287 15.4384 39.6085 15.7216 39.6085H19.1209C19.4042 39.6085 19.5458 39.4686 19.5458 39.1887V0.559702C19.4042 0.139925 19.2625 0 18.8375 0ZM15.2966 21.5539H13.0305C3.25772 21.5539 3.96573 3.3591 12.6057 3.3591H15.4384V21.5539H15.2966Z" fill="black"/>
<path d="M39.2331 13.1561H35.834C35.5508 13.1561 35.409 13.296 35.409 13.5761V23.653H29.1769V13.5761C29.1769 13.2963 29.0353 13.1561 28.7521 13.1561H25.4944C25.2112 13.1561 25.0696 13.296 25.0696 13.5761V39.1887C25.0696 39.4686 25.2112 39.6085 25.4944 39.6085H28.8937C29.1769 39.6085 29.3188 39.4686 29.3188 39.1887V26.8722H35.5506V39.1887C35.5506 39.4686 35.6922 39.6085 35.9756 39.6085H39.3747C39.6579 39.6085 39.7998 39.4686 39.7998 39.1887V13.5761C39.6582 13.2963 39.5163 13.1561 39.2331 13.1561ZM115.717 36.1097C115.717 35.9698 115.575 35.9698 115.434 35.9698C114.017 35.9698 105.377 40.0287 105.377 26.5925C105.377 20.7143 107.643 12.4567 113.026 17.3552C113.167 17.4951 113.309 17.4951 113.45 17.4951C113.592 17.4951 113.734 17.3552 113.876 17.0754L115.292 14.696C115.433 14.556 115.433 14.4161 115.433 14.2762C115.433 13.9963 115.15 13.8562 114.867 13.7163C105.519 9.09761 100.703 17.6351 100.703 27.5722C100.703 40.4485 110.193 42.268 115.575 38.3492C115.858 38.2093 115.858 37.9292 115.858 37.7895L115.717 36.1097ZM92.4885 25.0529L99.0037 13.4364C99.1453 13.2963 99.0037 13.0164 98.8621 13.0164H95.6044C94.6129 13.0164 94.3297 13.2963 94.0463 13.9961C93.7631 14.696 88.9475 24.6331 88.3809 25.0529V13.4362C88.3809 13.296 88.2393 13.0162 88.0977 13.0162H84.5567C84.4151 13.0162 84.2735 13.1561 84.2735 13.4362V39.1887C84.2735 39.3287 84.4151 39.6085 84.5567 39.6085H88.0977C88.3809 39.6085 88.3809 39.4686 88.3809 39.1887V25.8925C88.8059 26.1723 94.7545 38.349 94.8961 38.7687C95.1793 39.3284 95.746 39.6085 96.4542 39.6085H99.9952C100.278 39.6085 100.278 39.4686 100.137 39.1887L92.4885 25.0529ZM61.47 36.2499H60.7618C59.9122 36.2499 59.7703 35.97 59.7703 35.2699V13.4362C59.7703 13.1563 59.6287 13.0162 59.4871 13.0162H48.5811C48.2979 13.0162 48.1563 13.1561 48.1563 13.4362C48.1563 19.3144 48.2979 29.1116 44.3319 36.2496H43.1991C42.9159 36.2496 42.7741 36.3896 42.7741 36.6694V44.3671C42.7741 44.6469 43.0573 44.7871 43.1991 44.7871H45.7484C46.3148 44.7871 46.5982 44.3671 46.5982 43.9473V39.6085H58.0709V44.3671C58.0709 44.5072 58.2125 44.7871 58.4957 44.7871H61.3284C61.6116 44.7871 62.0366 44.5072 62.0366 43.9473V36.6694C61.895 36.3896 61.7534 36.2496 61.4702 36.2496L61.47 36.2499ZM55.5214 36.2499H47.5894C49.8557 32.6109 51.9802 26.7327 51.9802 16.3755H55.5212L55.5214 36.2499ZM72.5177 12.4567C66.7106 12.4567 64.0195 19.5945 64.0195 27.4321C64.0195 40.3086 73.0843 42.268 79.3161 38.4891C79.5993 38.3492 79.5993 38.2093 79.5993 38.0693L79.1745 36.2499C79.1745 36.1097 79.0329 35.97 78.7497 35.97C76.4834 35.97 68.5519 39.8886 68.5519 27.1525C71.3846 27.4323 71.3846 27.4323 79.8828 27.4323C79.7411 20.9942 79.0331 12.4567 72.5177 12.4567ZM68.6937 24.2127C68.6937 13.9957 75.4922 12.0363 75.4922 23.9328C72.5179 23.9328 71.2432 23.9328 68.6937 24.2127Z" fill="black"/>
</g>
<defs>
<clipPath id="clip0_7_216">
<rect width="116" height="45" fill="white"/>
</clipPath>
</defs>
</svg>
